<svg xmlns="http://www.w3.org/2000/svg" width="29.865" height="37.486" viewBox="0 0 29.865 37.486">
  <path id="bolt" d="M54.8,24.863a1.874,1.874,0,0,0-1.63-1.124H44.586l2.38-8.882a1.867,1.867,0,0,0-1.8-2.361H32.05a1.874,1.874,0,0,0-1.874,1.387L25.153,32.621a1.867,1.867,0,0,0,1.818,2.361h7.252l-3.392,12.63a1.874,1.874,0,0,0,3.2,1.743L54.462,26.868A1.874,1.874,0,0,0,54.8,24.863ZM36.453,41.129l2.005-7.5a1.867,1.867,0,0,0-1.8-2.361h-7.2l4.01-15.029h9.238l-2.38,8.882a1.874,1.874,0,0,0,1.874,2.361H48.9Z" transform="translate(-25.087 -12.494)" fill="#f16822"/>
</svg>
