<svg xmlns="http://www.w3.org/2000/svg" width="37.486" height="37.486" viewBox="0 0 37.486 37.486">
    <defs>
        <style>
            .cls-1{fill:#f16822}
        </style>
    </defs>
    <path id="briefcase" d="M37.612 9.5h-7.5V7.623A5.623 5.623 0 0 0 24.492 2h-7.5a5.623 5.623 0 0 0-5.623 5.623V9.5h-7.5A1.874 1.874 0 0 0 2 11.371v7.5a5.623 5.623 0 0 0 1.874 4.159v10.833A5.623 5.623 0 0 0 9.5 39.486h22.489a5.623 5.623 0 0 0 5.623-5.623V23.03a5.623 5.623 0 0 0 1.874-4.161v-7.5A1.874 1.874 0 0 0 37.612 9.5zM15.12 7.623a1.874 1.874 0 0 1 1.874-1.874h7.5a1.874 1.874 0 0 1 1.874 1.874V9.5H15.12zm18.743 26.24a1.874 1.874 0 0 1-1.874 1.874H9.5a1.874 1.874 0 0 1-1.874-1.874v-9.371h3.749v1.874a1.874 1.874 0 1 0 3.749 0v-1.874h11.242v1.874a1.874 1.874 0 1 0 3.749 0v-1.874h3.749zm1.874-14.994a1.874 1.874 0 0 1-1.874 1.874h-3.749v-1.874a1.874 1.874 0 0 0-3.749 0v1.874H15.12v-1.874a1.874 1.874 0 0 0-3.749 0v1.874H7.623a1.874 1.874 0 0 1-1.874-1.874v-5.623h29.988z" class="cls-1" transform="translate(-2 -2)"/>
</svg>
