<svg xmlns="http://www.w3.org/2000/svg" width="39.438" height="27.742" viewBox="0 0 39.438 27.742">
  <path id="Exclusion_5" data-name="Exclusion 5" d="M19.719,27.742a15.913,15.913,0,0,1-7.671-2.167A29.8,29.8,0,0,1,5.78,20.807,43.735,43.735,0,0,1,0,13.872l0-.009A44.051,44.051,0,0,1,5.78,6.936a29.8,29.8,0,0,1,6.268-4.768A15.912,15.912,0,0,1,19.719,0,15.912,15.912,0,0,1,27.39,2.167a29.8,29.8,0,0,1,6.268,4.768,43.748,43.748,0,0,1,5.78,6.936l0,.009a44.044,44.044,0,0,1-5.775,6.926,29.8,29.8,0,0,1-6.268,4.768A15.913,15.913,0,0,1,19.719,27.742ZM19.582,5.168a8.839,8.839,0,1,0,8.839,8.839A8.849,8.849,0,0,0,19.582,5.168Z" fill="#fff"/>
</svg>
