<svg xmlns="http://www.w3.org/2000/svg" width="33.737" height="37.486" viewBox="0 0 33.737 37.486">
    <defs>
        <style>
            .cls-1{fill:#f16822}
        </style>
    </defs>
    <path id="notes" d="M27.366 24.492H12.371a1.874 1.874 0 0 0 0 3.749h14.995a1.874 1.874 0 0 0 0-3.749zm0-7.5H16.12a1.874 1.874 0 1 0 0 3.749h11.246a1.874 1.874 0 0 0 0-3.749zm7.5-11.246H29.24V3.874a1.874 1.874 0 1 0-3.749 0v1.875h-3.748V3.874a1.874 1.874 0 1 0-3.749 0v1.875h-3.748V3.874a1.874 1.874 0 1 0-3.749 0v1.875H4.874A1.874 1.874 0 0 0 3 7.623v26.24a5.623 5.623 0 0 0 5.623 5.623h22.491a5.623 5.623 0 0 0 5.623-5.623V7.623a1.874 1.874 0 0 0-1.874-1.874zm-1.877 28.117a1.874 1.874 0 0 1-1.874 1.874H8.623a1.874 1.874 0 0 1-1.874-1.874V9.5H10.5v1.874a1.874 1.874 0 1 0 3.749 0V9.5h3.749v1.874a1.874 1.874 0 1 0 3.749 0V9.5h3.749v1.874a1.874 1.874 0 1 0 3.749 0V9.5h3.749z" class="cls-1" transform="translate(-3 -2)"/>
</svg>
