<svg id="star" xmlns="http://www.w3.org/2000/svg" width="37.486" height="35.795" viewBox="0 0 37.486 35.795">
  <path id="star-2" data-name="star" d="M49.946,28.744a1.872,1.872,0,0,0-1.61-1.254l-10.65-1.554-4.773-9.677a1.872,1.872,0,0,0-3.369,0l-4.773,9.658L14.12,27.49a1.844,1.844,0,0,0-1.048,3.145l7.73,7.487L18.931,48.753a1.87,1.87,0,0,0,2.714,2l9.583-5,9.546,5.016a1.741,1.741,0,0,0,.861.225,1.882,1.882,0,0,0,1.853-2.227L41.616,38.14l7.73-7.487A1.872,1.872,0,0,0,49.946,28.744ZM38.434,36.231a1.872,1.872,0,0,0-.543,1.666l1.348,7.843L32.2,42a1.872,1.872,0,0,0-1.759,0L23.4,45.739,24.752,37.9a1.872,1.872,0,0,0-.543-1.666l-5.615-5.615,7.88-1.142A1.872,1.872,0,0,0,27.9,28.444l3.332-7.131,3.519,7.15a1.872,1.872,0,0,0,1.423,1.029l7.88,1.142Z" transform="translate(-12.523 -15.204)" fill="#f16822"/>
</svg>
